<svg id="图层_1" data-name="图层 1" xmlns="http://www.w3.org/2000/svg" xmlns:xlink="http://www.w3.org/1999/xlink" viewBox="0 0 1270.15 379.8"><defs><style>.cls-1,.cls-10,.cls-11,.cls-12,.cls-2,.cls-3,.cls-4,.cls-5,.cls-6,.cls-7,.cls-8,.cls-9{stroke:#000;stroke-miterlimit:10;stroke-width:0.5px;}.cls-1{fill:url(#未命名的渐变_72);}.cls-2{fill:url(#未命名的渐变_72-2);}.cls-3{fill:url(#未命名的渐变_72-3);}.cls-4{fill:url(#未命名的渐变_72-4);}.cls-5{fill:url(#未命名的渐变_72-5);}.cls-6{fill:url(#未命名的渐变_72-6);}.cls-7{fill:url(#未命名的渐变_72-7);}.cls-8{fill:url(#未命名的渐变_72-8);}.cls-9{fill:url(#未命名的渐变_72-9);}.cls-10{fill:url(#未命名的渐变_72-10);}.cls-11{fill:url(#未命名的渐变_72-11);}.cls-12{fill:url(#未命名的渐变_72-12);}</style><linearGradient id="未命名的渐变_72" x1="40.38" y1="398.47" x2="214.2" y2="97.4" gradientUnits="userSpaceOnUse"><stop offset="0" stop-color="blue"/><stop offset="0.24" stop-color="#e9e9e9"/><stop offset="0.42" stop-color="#e9e9e9"/><stop offset="0.59" stop-color="#ff0"/><stop offset="0.78" stop-color="#f0f"/><stop offset="1" stop-color="red"/></linearGradient><linearGradient id="未命名的渐变_72-2" x1="173.65" y1="417.29" x2="337.98" y2="132.66" xlink:href="#未命名的渐变_72"/><linearGradient id="未命名的渐变_72-3" x1="250.69" y1="409.87" x2="422.99" y2="111.44" xlink:href="#未命名的渐变_72"/><linearGradient id="未命名的渐变_72-4" x1="339.75" y1="393.89" x2="507.71" y2="102.99" xlink:href="#未命名的渐变_72"/><linearGradient id="未命名的渐变_72-5" x1="520.31" y1="152.38" x2="587.94" y2="35.23" xlink:href="#未命名的渐变_72"/><linearGradient id="未命名的渐变_72-6" x1="542.91" y1="399.55" x2="702.33" y2="123.42" xlink:href="#未命名的渐变_72"/><linearGradient id="未命名的渐变_72-7" x1="698.91" y1="399.39" x2="857.95" y2="123.93" xlink:href="#未命名的渐变_72"/><linearGradient id="未命名的渐变_72-8" x1="785.31" y1="408.08" x2="957.48" y2="109.87" xlink:href="#未命名的渐变_72"/><linearGradient id="未命名的渐变_72-9" x1="976.59" y1="418.81" x2="1140.92" y2="134.17" xlink:href="#未命名的渐变_72"/><linearGradient id="未命名的渐变_72-10" x1="1059.03" y1="400.07" x2="1218.07" y2="124.61" xlink:href="#未命名的渐变_72"/><linearGradient id="未命名的渐变_72-11" x1="1135.53" y1="401.12" x2="1286.62" y2="139.42" xlink:href="#未命名的渐变_72"/><linearGradient id="未命名的渐变_72-12" x1="1186.72" y1="395.64" x2="1342.18" y2="126.37" xlink:href="#未命名的渐变_72"/></defs><title>ao3TitleColored</title><path class="cls-1" d="M169,173.77c-39.52,82.6-75.77,158.84-111.38,233.71H56c23.3-79,46-159.34,68.83-237.88,10.11-34,10.81-41.31,4.29-45l2.39-6.35,27.56,0-2.38,6.36c-8.14,4.07-12.21,6.79-17,19.49-1.37,3.64-2.65,7.72-4,12.72C117.2,220,97.4,289,77.13,358.92h.26c38.54-81.69,75.94-159.29,112.14-235.07h1.39c-21.59,75.81-42.33,150.72-66.11,234.71h.26c30.5-64,77.85-164.74,91.73-197,2.3-5.45,4.42-10.44,5.79-14.07,5.45-14.52,4.15-18.16-.76-22.71l2.39-6.36,26.55.05-2.39,6.36c-9.7,4.52-13.36,10.88-29.61,44-20.25,41.75-55.73,116.63-113,238.71H104c21.72-75.81,52.33-186.13,65.26-233.8Z" transform="translate(-55.65 -31.68)"/><path class="cls-2" d="M204.54,396.41c8.61-3.62,12.3-6.34,16.39-17.23,4.43-11.8,13.91-47.22,24.88-89l-29.34-.06c-4.51,8.62-33.86,69.89-39.14,84-5.8,15.43-3.39,18.16,2.19,22.26l-2.38,6.35-28.84,0,2.38-6.36C162,390,165.15,385.88,185.18,345l114.29-231,2.38-2.26-23,84c-15.46,56.75-31,113.5-42.57,157.08-8.79,33.6-9.65,38.59-2.64,43.6l-2.38,6.36-29.09-.06ZM283.21,154c-20.25,40.39-41.39,83.5-59.77,121.62l26.68.05L283.46,154Z" transform="translate(-55.65 -31.68)"/><path class="cls-3" d="M315.73,245.82l53.61.1,28.28-75.35c13.29-35.4,14.83-42.21,5.1-45.41l2.39-6.35,30.74,0-2.39,6.36c-12.37,3.15-15.94,10-29.23,45.36L336.42,351.23c-13.46,35.86-15,42.67-5.23,45.42L328.81,403l-31.38-.06,2.39-6.35c13-2.71,16.53-9.51,30-45.37L364.06,260l-53.61-.1-34.24,91.23c-13.46,35.86-14.88,42.67-4.72,45.41l-2.39,6.36-30.61-.06,2.39-6.36c11.69-2.7,15.26-9.51,28.72-45.36l67.81-180.65c13.29-35.41,14.83-42.22,4.85-45.41l2.38-6.36,30.49.06-2.39,6.35c-11.73,3.16-15.43,10-28.72,45.37Z" transform="translate(-55.65 -31.68)"/><path class="cls-4" d="M358,396.7c13.55-2.25,17.34-10,30.29-44.46l83.48-222.41H463.9c-16.64,0-22,10-43.74,57.6h-2c10.82-26.78,21.42-54,31.22-79.43h2c-1.16,5.45-1.29,8.18-.78,9.54s1.77,1.36,3.55,1.37l51.19.09c3.31,0,5.05-2.26,10.06-10.88l2,.46c-8.26,21.33-18.23,49.93-27.82,77.16l-2.84,1.82c16.2-51.3,13.76-57.66,3-57.68l-11.3,0L394.89,352.25c-12.95,34.5-14.95,42.21-2.6,44.51l-2.38,6.36-34.3-.07Z" transform="translate(-55.65 -31.68)"/><path class="cls-5" d="M577.14,66.9c-16.19,43.12-49.95,88-52.37,88-.89,0-.41-3.63.61-6.35a36.39,36.39,0,0,1,4.89-8.62c15.63-21.32,25.7-39,30.13-50.82,2.39-6.35,3.2-10.89,2.28-13.17-1.44-3.63.19-11.35,3.26-19.52,4.43-11.8,11.49-24.51,15.8-24.5,2.93,0,3.84,6.37-.3,21.8A126.2,126.2,0,0,1,577.14,66.9Z" transform="translate(-55.65 -31.68)"/><path class="cls-6" d="M668,185.16c7.72-26.33,18.13-62.19,5.81-62.21-9.15,0-21.73,21.3-32.8,50.81-14.32,38.12-12.19,53.12-9.55,68.11,1.84,10,10.13,29.54-11.16,86.28-17.72,47.21-40.66,81.23-57,82.11a13.66,13.66,0,0,1-10.1-7.29,23.46,23.46,0,0,1-2.23-8.64c3.41-11.8,14.41-44.48,23.87-71.72h2c-7.16,24.51-21,75.81-6.09,75.84,9.78,0,22.91-19,37.9-59,17.21-45.84,12.58-61.29,11-74.92-.29-2.27-11-23.64,9.83-79,14.14-37.67,36.07-73.06,51.06-73,4.19,0,7.37,1.38,11.29,9.56-5.29,15.43-11,32.23-21.65,63.1Z" transform="translate(-55.65 -31.68)"/><path class="cls-7" d="M823.06,257.68C789.16,348,745.44,410.6,721.31,410.55c-23.25,0-19-61.35,12.47-145.32C762.41,189,807.55,112.75,835.87,112.81,857.09,112.85,856.11,169.62,823.06,257.68Zm-75.44-5.6c-33.23,88.51-39.75,147.55-19.17,147.59,17.15,0,48.49-42.15,78.82-122.95,38.67-103,41.28-153,20.83-153C811,124.11,780.5,164.48,747.62,252.08Z" transform="translate(-55.65 -31.68)"/><path class="cls-8" d="M780.36,397.49c8.18-1.8,15.14-10.87,20.93-23.58,6.13-13.61,15.88-38.57,33.09-84.42l37-98.49c15.17-40.4,13.68-38.13,15.14-48.12,1.25-9.08.46-14.08-5.25-16.82l2.38-6.35,15.62,0L868,359.5h.38l48.56-129.36c33.23-88.51,37.53-100.32,24-104l2.38-6.36,31.51.06-2.39,6.36c-8.22,2.25-14.63,10.87-20.71,24-6.43,14.07-15.25,37.22-31.26,79.88L854,407.17h-1.4l30.89-238.41h-.25L837.94,289.5c-17.09,45.84-26.33,70.81-30.21,83.52-4.14,14.07-3.4,22.25,4.26,24.53l-2.38,6.36L778,403.85Z" transform="translate(-55.65 -31.68)"/><path class="cls-9" d="M1007.49,397.92c8.6-3.62,12.29-6.33,16.38-17.23,4.43-11.8,13.91-47.21,24.88-89l-29.34,0c-4.51,8.62-33.86,69.88-39.14,83.95-5.8,15.44-3.39,18.17,2.19,22.27l-2.38,6.35-28.84-.06,2.38-6.35c11.28-6.34,14.47-10.42,34.5-51.26l114.29-231,2.38-2.27-23,84c-15.46,56.75-31,113.49-42.57,157.08-8.79,33.59-9.65,38.59-2.63,43.6l-2.39,6.35-29.09-.05Zm78.66-242.4c-20.25,40.39-41.39,83.5-59.76,121.62l26.67.05,33.34-121.67Z" transform="translate(-55.65 -31.68)"/><path class="cls-10" d="M1183.18,258.36c-33.9,90.32-77.61,152.92-101.75,152.87-23.25,0-19-61.35,12.48-145.32,28.62-76.26,73.76-152.48,102.08-152.42C1217.21,113.53,1216.24,170.3,1183.18,258.36Zm-75.44-5.6c-33.23,88.51-39.75,147.55-19.17,147.59,17.15,0,48.49-42.15,78.82-123,38.67-103,41.28-153,20.83-153C1171.16,124.79,1140.62,165.16,1107.74,252.76Z" transform="translate(-55.65 -31.68)"/><path class="cls-11" d="M1242.83,151.27c8.79-13.61,18-22.67,23.5-22.66,10.67,0,8.21,24.54-3,54.5-7.67,20.42-17.48,34-31.23,49l-.34.91c8.75,6.83,3.86,36.8-8.29,69.48-27.6,73.53-63.32,107.07-72.34,107.06-7.33-.47-6.83-16.37-3.42-25.44,1.88-5,8.42-15,9.82-15,.63,0,1,.91,1.13,2.72-.82,10-.25,17.26,7.12,17.28,9,0,26.22-21.76,44.45-70.32,23.34-62.19,11.07-66.75,7.39-66.76-4.19,0-9.63,5-12,7.25l1.84-7.27c19.3-15.86,35.64-34,47-64.41,9.37-25,10.17-39.95,2.8-40-8.64,0-21.64,21.76-29.55,36.73l-.33-4.54Z" transform="translate(-55.65 -31.68)"/><path class="cls-12" d="M1213.42,390.13c4.08-10.89,9.74-19.51,12.66-19.5s2.22,8.63-1.87,19.52c-4.43,11.81-9.74,19.52-12.79,19.51C1208.12,409.66,1209.33,401,1213.42,390.13Zm33-66.7c-1-6.36-1.2-31.35,7.66-54.95,6-15.88,12.77-27.23,28-49.45,6.32-9.08,23.78-32.21,32.81-56.26,7.16-19.07,8-29.51,2.94-29.52-7.24,0-21.09,24-22,24s-1.6-5.91,1.47-14.08c4.26-11.35,19.84-29.49,22.46-29,10.21-.43,5.94,33.63-5.82,64.94A171.11,171.11,0,0,1,1295.44,215c-7.81,11.34-27,34.47-36.25,59-7.66,20.43-8.75,30.42-8.69,41.77Z" transform="translate(-55.65 -31.68)"/></svg>